{"glyphs":{"0":{"ha":1094,"x_min":0,"x_max":972,"o":"m 486 148 q 247 247 346 148 q 147 486 147 347 q 247 725 147 626 q 486 825 346 825 q 725 725 625 825 q 824 486 824 626 q 725 247 824 347 q 486 148 625 148 m 486 0 q 829 143 686 0 q 972 486 972 286 q 829 829 972 686 l 829 830 q 486 972 686 972 q 142 830 286 972 l 142 829 q 0 486 0 686 q 142 143 0 286 q 486 0 286 0 z "},"1":{"ha":512,"x_min":0,"x_max":390,"o":"m 316 0 q 368 22 347 0 q 390 74 390 43 l 390 899 l 389 899 q 387 919 389 909 q 352 963 378 949 q 316 972 335 972 q 296 970 306 972 l 54 901 q 9 865 23 891 q 0 831 0 849 q 3 809 0 820 q 37 765 12 779 q 73 755 54 755 q 94 758 83 755 l 242 801 l 242 74 q 264 22 242 43 q 316 0 286 0 z "},"2":{"ha":874,"x_min":0,"x_max":752,"o":"m 678 0 q 730 22 709 0 q 752 74 752 43 q 730 126 752 104 q 678 148 709 148 l 313 148 l 315 149 q 604 334 467 227 q 741 602 741 441 q 632 864 741 755 q 370 972 524 972 q 109 864 218 972 q 0 602 0 755 q 22 550 0 572 q 74 528 43 528 q 126 550 104 528 q 148 602 148 572 q 213 759 148 694 q 370 825 279 825 q 527 759 462 825 q 593 602 593 694 q 480 425 593 505 q 243 278 368 344 q 16 119 87 199 q 1 75 1 98 q 3 53 1 70 q 30 16 5 35 q 74 1 50 1 l 74 0 l 678 0 z "},"3":{"ha":793,"x_min":0,"x_max":671,"o":"m 382 -35 q 587 50 502 -35 q 671 254 671 135 q 587 458 671 373 q 575 469 581 464 q 671 684 671 554 q 587 888 671 803 q 382 972 502 972 l 241 972 q 116 944 175 972 q 16 865 57 915 q 0 818 0 843 q 2 798 0 814 q 27 761 3 781 q 73 745 48 745 q 94 746 77 745 q 131 773 111 748 q 179 811 151 798 q 241 825 208 825 l 382 825 q 482 783 441 825 q 524 684 524 742 q 482 584 524 626 q 382 543 441 543 l 241 543 q 189 521 210 543 q 167 469 167 499 q 189 417 167 438 q 241 395 210 395 l 382 395 q 482 354 441 395 q 524 254 524 312 q 482 155 524 196 q 382 113 441 113 l 241 113 q 131 165 173 113 q 73 193 107 193 q 27 177 48 193 q 0 120 0 153 q 16 73 0 95 q 116 -6 57 22 q 241 -35 175 -35 l 382 -35 z "},"4":{"ha":981,"x_min":0,"x_max":859,"o":"m 656 -216 q 708 -195 686 -216 q 730 -142 730 -173 l 730 0 l 785 0 q 837 22 815 0 q 859 74 859 43 q 837 126 859 104 q 785 148 815 148 l 730 148 l 730 460 q 708 512 730 491 q 656 534 686 534 q 604 512 625 534 q 582 460 582 491 l 582 148 l 191 148 l 532 867 q 538 899 538 884 q 496 965 538 945 q 465 972 481 972 q 398 930 419 972 l 7 106 q 0 74 0 90 q 43 7 0 28 q 74 1 58 1 l 74 0 l 582 0 l 582 -142 q 604 -195 582 -173 q 656 -216 625 -216 z "},"5":{"ha":773,"x_min":0,"x_max":651,"o":"m 326 0 q 555 96 460 0 q 651 326 651 192 l 651 353 q 555 583 651 487 q 326 678 460 678 l 148 678 l 148 825 l 553 825 q 605 846 583 825 q 627 899 627 868 q 605 951 627 929 q 553 972 583 972 l 0 972 l 0 604 q 22 552 0 574 q 74 531 43 531 l 326 531 q 451 479 399 531 q 503 353 503 427 l 503 326 q 451 200 503 252 q 326 148 399 148 q 239 171 279 148 q 174 233 199 193 q 111 269 151 269 q 73 258 92 269 q 37 195 37 234 q 48 156 37 175 q 166 42 93 84 q 326 0 239 0 z "},"6":{"ha":786,"x_min":0,"x_max":664,"o":"m 332 148 q 201 202 256 148 q 147 332 147 256 l 147 361 q 188 475 147 423 q 332 545 243 545 q 463 491 408 545 q 517 361 517 437 l 517 332 q 463 202 517 256 q 332 148 408 148 m 332 0 q 567 98 469 0 q 664 332 664 195 l 664 361 q 567 595 664 498 q 354 692 481 681 l 478 854 q 494 900 494 876 q 491 921 494 904 q 465 957 489 938 q 420 972 444 972 q 398 970 416 972 q 361 943 381 968 l 78 574 q 0 361 0 483 l 0 332 q 97 98 0 195 q 332 0 195 0 z "},"7":{"ha":793,"x_min":0,"x_max":671,"o":"m 75 0 q 100 4 82 0 q 136 35 119 9 l 659 857 q 671 899 671 876 q 650 951 671 929 q 598 972 629 972 l 74 972 q 22 951 43 972 q 0 899 0 929 q 22 846 0 868 q 74 825 43 825 l 464 825 l 12 114 q 0 74 0 94 q 4 48 0 66 q 35 12 9 29 q 75 0 54 0 z "},"8":{"ha":764,"x_min":0,"x_max":642,"o":"m 321 560 q 230 598 268 560 q 192 690 192 636 q 230 787 192 749 q 321 825 268 825 q 412 787 374 825 q 450 696 450 749 q 412 598 450 636 q 321 560 374 560 m 363 148 l 280 148 q 187 187 226 148 q 148 280 148 226 q 187 374 148 335 q 280 412 226 412 l 363 412 q 456 374 417 412 q 495 280 495 335 q 456 187 495 226 q 363 148 417 148 m 363 0 q 560 82 478 0 q 642 280 642 165 q 560 478 642 396 q 528 506 545 493 q 598 690 598 584 q 517 891 598 810 q 321 972 435 972 q 125 891 207 972 q 44 696 44 810 q 115 506 44 584 q 82 478 97 493 q 0 280 0 396 q 82 82 0 165 q 280 0 164 0 l 363 0 z "},"9":{"ha":787,"x_min":0,"x_max":665,"o":"m 332 428 q 202 482 256 428 q 148 612 148 536 l 148 640 q 202 770 148 716 q 332 825 256 825 q 463 770 408 825 q 517 640 517 716 l 517 612 q 463 483 517 537 q 332 428 408 428 m 244 1 q 266 3 249 1 q 303 29 283 5 l 587 399 q 665 612 665 490 l 665 640 q 567 875 665 777 q 332 972 469 972 q 98 875 195 972 q 0 640 0 777 l 0 612 q 98 378 0 475 q 311 281 184 292 l 186 119 q 171 75 171 98 q 173 53 171 70 q 200 16 176 35 q 244 1 220 1 z "}," ":{"ha":474,"x_min":0,"x_max":0,"o":""}," ":{"ha":474,"x_min":0,"x_max":0,"o":""},"!":{"ha":388,"x_min":0,"x_max":266,"o":"m 134 -1 q 82 20 104 -1 q 60 73 60 42 l 60 102 q 82 155 60 133 q 134 176 104 176 q 186 155 165 176 q 208 102 208 133 l 208 73 q 186 20 208 42 q 134 -1 165 -1 m 134 287 q 82 309 104 287 q 60 361 60 330 l 0 899 q 70 962 7 946 q 133 970 102 970 q 266 899 256 970 l 208 363 q 186 309 208 330 q 134 287 165 287 z "},"\"":{"ha":690,"x_min":0,"x_max":568,"o":"m 410 460 q 387 465 398 460 q 359 510 359 479 q 365 532 359 521 l 412 627 l 389 642 q 334 741 334 680 q 369 823 334 789 q 451 857 403 857 q 534 823 500 857 q 568 741 568 789 q 567 723 568 732 l 566 720 q 559 696 566 713 q 552 682 557 688 l 454 488 q 410 460 439 460 m 75 460 q 52 465 64 460 q 24 509 24 479 q 30 532 24 521 l 78 627 l 55 642 q 0 741 0 680 q 34 823 0 789 q 117 857 68 857 q 199 823 165 857 q 233 741 233 789 q 232 723 233 732 q 227 701 232 711 q 218 682 222 690 l 120 488 q 75 460 105 460 z "},"#":{"ha":1140,"x_min":0,"x_max":1018,"o":"m 599 382 l 393 382 l 419 589 l 626 589 l 599 382 m 633 -1 q 680 16 658 -1 q 706 64 701 33 l 728 234 l 899 234 q 950 256 929 234 q 972 308 972 277 q 950 360 972 338 q 899 382 929 382 l 747 382 l 774 589 l 945 589 q 997 610 975 589 q 1018 663 1018 632 q 997 715 1018 693 q 945 736 975 736 l 793 736 q 814 897 814 891 q 797 944 814 922 q 741 971 776 971 q 693 954 715 971 q 667 907 672 937 l 645 736 l 439 736 q 459 897 459 891 q 442 944 459 922 q 387 971 421 971 q 338 954 360 971 q 312 907 317 937 l 290 736 l 120 736 q 68 715 90 736 q 46 663 46 693 q 68 610 46 632 q 120 589 90 589 l 271 589 l 244 382 l 74 382 q 22 360 43 382 q 0 308 0 338 q 22 256 0 277 q 74 234 43 234 l 225 234 q 205 72 205 78 q 222 26 205 47 q 279 -1 242 -1 q 325 16 303 -1 q 351 64 347 33 l 373 234 l 580 234 q 559 73 559 78 q 576 26 559 47 q 633 -1 597 -1 z "},"$":{"ha":963,"x_min":0,"x_max":841,"o":"m 347 566 q 205 610 263 576 q 148 725 148 643 q 191 804 148 770 q 347 867 250 853 l 347 566 m 494 102 l 494 396 q 635 351 578 385 q 693 237 693 318 q 654 163 693 195 q 494 102 596 115 m 420 -209 q 473 -187 451 -209 q 494 -135 494 -165 l 494 -46 q 749 52 654 -30 q 841 237 841 125 q 738 474 841 415 q 494 545 635 532 l 494 863 q 699 747 613 841 q 754 720 722 720 q 802 738 780 720 q 828 795 828 760 q 811 842 828 820 q 494 1013 677 989 l 494 1105 q 473 1157 494 1135 q 420 1179 451 1179 q 368 1157 390 1179 q 347 1105 347 1135 l 347 1015 q 96 917 195 999 q 0 725 0 840 q 103 488 0 546 q 347 416 205 429 l 347 108 q 130 229 220 130 q 73 255 106 255 q 26 238 48 255 q 1 181 1 214 q 18 134 1 156 q 347 -42 157 -18 l 347 -135 q 368 -187 347 -165 q 420 -209 390 -209 z "},"%":{"ha":1215,"x_min":0,"x_max":1093,"o":"m 901 28 q 870 42 883 28 q 857 73 857 55 q 870 104 857 92 q 901 117 883 117 q 932 104 920 117 q 945 73 945 92 q 932 42 945 55 q 901 28 920 28 m 192 853 q 160 866 173 853 q 147 897 147 879 q 160 928 147 916 q 192 941 173 941 q 223 928 210 941 q 236 897 236 916 q 223 866 236 879 q 192 853 210 853 m 192 705 q 328 762 271 705 q 384 897 384 818 q 328 1033 384 976 q 192 1089 271 1089 q 56 1033 113 1089 q 0 897 0 976 q 56 762 0 818 q 192 705 113 705 m 135 -1 q 172 22 151 0 l 954 846 q 975 897 975 869 q 974 913 975 899 q 952 951 974 928 q 901 971 929 971 q 885 971 900 971 q 848 948 870 970 l 66 123 q 45 73 45 101 q 46 57 45 72 q 68 20 46 41 q 119 -1 91 -1 l 135 -1 m 901 -119 q 1037 -63 981 -119 q 1093 73 1093 -7 q 1037 208 1093 152 q 901 264 981 264 q 766 208 823 264 q 709 73 709 152 q 766 -63 709 -7 q 901 -119 822 -119 z "},"&":{"ha":1047,"x_min":0,"x_max":925,"o":"m 340 31 q 204 87 261 31 q 148 224 148 144 q 177 326 148 280 q 220 374 194 353 q 507 110 333 245 q 340 31 456 31 m 850 -119 q 878 -115 859 -119 q 913 -85 896 -111 q 925 -45 925 -65 q 921 -19 925 -37 q 890 17 916 -1 q 700 148 831 53 q 727 212 714 180 q 789 334 757 288 q 806 379 806 355 q 804 400 806 383 q 777 437 802 417 q 730 454 756 454 q 710 452 727 454 q 674 425 694 450 q 591 269 625 359 l 580 240 q 374 425 471 327 q 208 691 208 583 q 247 785 208 746 q 340 823 286 823 q 434 785 395 823 q 473 691 473 746 q 494 639 473 661 q 547 617 516 617 q 599 639 577 617 q 621 691 621 661 q 538 889 621 806 q 340 971 456 971 q 143 889 225 971 q 61 691 61 807 q 130 492 61 595 q 52 404 84 454 q 0 224 0 323 q 100 -17 0 83 q 340 -117 200 -117 q 627 19 555 -117 q 812 -108 755 -73 q 850 -119 831 -119 z "},"'":{"ha":355,"x_min":0,"x_max":233,"o":"m 75 460 q 53 465 64 460 q 25 510 25 479 q 31 532 25 521 l 78 627 l 55 642 q 0 741 0 680 q 34 823 0 789 q 117 857 68 857 q 199 823 165 857 q 233 741 233 789 q 232 723 233 732 q 225 696 232 713 l 120 488 q 75 460 105 460 z "},"(":{"ha":431,"x_min":0,"x_max":309,"o":"m 234 -1 q 259 2 241 -1 q 295 31 277 5 q 309 73 309 51 q 305 97 309 79 q 277 134 302 115 q 232 180 253 150 q 147 471 156 292 l 146 504 q 218 777 146 661 q 277 838 243 813 q 308 897 308 860 q 294 940 308 920 q 234 971 272 971 q 192 958 212 971 q 98 861 136 918 q 0 507 0 705 q 112 94 0 260 q 193 12 147 44 q 234 -1 213 -1 z "},")":{"ha":431,"x_min":0,"x_max":309,"o":"m 75 -1 q 116 12 96 -1 q 197 94 161 44 q 309 507 309 260 q 211 861 309 705 q 117 958 172 918 q 75 971 96 971 q 50 968 68 971 q 14 940 33 965 q 1 897 1 920 q 3 873 1 891 q 31 838 6 856 q 90 777 65 813 q 162 504 162 661 l 161 471 q 77 180 153 292 q 32 134 56 150 q 0 73 0 110 q 14 31 0 51 q 75 -1 36 -1 z "},"*":{"ha":538,"x_min":0,"x_max":416,"o":"m 214 794 l 203 794 q 195 802 200 798 l 195 812 q 203 821 199 816 l 208 820 l 214 821 q 222 813 217 816 l 221 807 l 222 802 q 214 794 217 799 m 208 599 q 241 612 227 599 q 255 645 255 626 l 245 718 l 290 660 q 323 646 305 646 q 355 660 340 646 q 369 692 369 675 q 355 726 369 711 l 297 771 l 370 761 q 403 774 389 761 q 416 807 416 788 q 403 840 416 827 q 370 854 389 854 l 297 844 l 355 889 q 369 922 369 904 q 355 954 369 939 q 323 968 340 968 q 290 954 305 968 l 245 896 l 255 969 q 241 1002 255 988 q 208 1015 227 1015 q 176 1002 189 1015 q 162 969 162 988 l 171 896 l 127 954 q 94 968 112 968 q 61 954 76 968 q 47 922 47 939 q 61 889 47 904 l 119 844 l 46 854 q 14 840 27 854 q 0 807 0 827 q 14 774 0 788 q 46 761 27 761 l 119 770 l 61 726 q 47 692 47 711 q 61 660 47 675 q 94 646 76 646 q 127 660 112 646 l 172 718 l 162 645 q 176 612 162 626 q 208 599 189 599 z "},"+":{"ha":945,"x_min":0,"x_max":823,"o":"m 411 74 q 463 96 441 74 q 485 148 485 117 l 485 411 l 749 411 q 801 433 779 411 q 823 485 823 454 q 801 537 823 515 q 749 559 779 559 l 485 559 l 485 823 q 463 875 485 853 q 411 897 441 897 q 359 875 380 897 q 338 823 338 853 l 338 559 l 74 559 q 22 537 43 559 q 0 485 0 515 q 22 433 0 454 q 74 411 43 411 l 338 411 l 338 148 q 359 96 338 117 q 411 74 380 74 z "},",":{"ha":356,"x_min":0,"x_max":234,"o":"m 76 -159 q 53 -153 64 -159 q 25 -109 25 -138 q 31 -86 25 -98 l 78 8 l 55 22 q 0 121 0 61 q 34 204 0 170 q 117 238 68 238 q 200 204 165 238 q 234 121 234 170 q 233 104 234 113 l 232 101 q 227 80 231 90 q 120 -131 220 64 q 76 -159 105 -159 z "},"-":{"ha":783,"x_min":0,"x_max":661,"o":"m 587 411 q 640 433 618 411 q 661 485 661 454 q 640 537 661 515 q 587 559 618 559 l 74 559 q 22 537 43 559 q 0 485 0 515 q 22 433 0 454 q 74 411 43 411 l 587 411 z "},"­":{"ha":783,"x_min":0,"x_max":661,"o":"m 587 411 q 640 433 618 411 q 661 485 661 454 q 640 537 661 515 q 587 559 618 559 l 74 559 q 22 537 43 559 q 0 485 0 515 q 22 433 0 454 q 74 411 43 411 l 587 411 z "},".":{"ha":356,"x_min":0,"x_max":234,"o":"m 117 5 q 200 39 165 5 q 234 121 234 73 q 200 204 234 170 q 117 238 165 238 q 34 204 68 238 q 0 121 0 170 q 34 39 0 73 q 117 5 68 5 z "},"/":{"ha":739,"x_min":0,"x_max":617,"o":"m 73 -1 q 103 4 83 -1 q 138 37 122 9 l 608 861 q 617 897 617 879 q 612 926 617 907 q 580 962 607 945 q 544 971 562 971 q 479 934 503 971 l 10 109 q 0 72 0 91 q 37 9 0 32 q 73 -1 56 -1 z "},":":{"ha":355,"x_min":0,"x_max":233,"o":"m 117 5 q 34 39 68 5 q 0 121 0 73 q 34 204 0 170 q 117 238 68 238 q 199 204 165 238 q 233 121 233 170 q 199 39 233 73 q 117 5 165 5 m 117 624 q 34 658 68 624 q 0 741 0 692 q 34 823 0 789 q 117 857 68 857 q 199 823 165 857 q 233 741 233 789 q 199 658 233 692 q 117 624 165 624 z "},";":{"ha":355,"x_min":0,"x_max":233,"o":"m 75 -159 q 53 -153 64 -159 q 24 -109 24 -138 q 30 -86 24 -98 l 77 8 l 55 22 q 0 121 0 61 q 34 204 0 170 q 117 238 68 238 q 199 204 165 238 q 233 121 233 170 q 232 104 233 113 q 226 80 232 92 l 120 -131 q 75 -159 105 -159 m 117 624 q 34 658 68 624 q 0 741 0 692 q 34 823 0 789 q 117 857 68 857 q 199 823 165 857 q 233 741 233 789 q 199 658 233 692 q 117 624 165 624 z "},"<":{"ha":907,"x_min":0,"x_max":785,"o":"m 712 134 q 780 180 761 134 q 785 208 785 194 q 776 243 785 222 q 739 276 767 264 l 262 467 l 739 657 q 779 696 767 668 q 785 725 785 711 q 780 753 785 739 q 741 793 768 781 q 712 800 726 800 q 684 794 698 800 l 47 539 q 6 500 18 528 q 0 471 0 486 l 0 461 q 6 433 0 447 q 47 394 18 405 l 684 139 q 712 134 698 134 z "},"=":{"ha":956,"x_min":0,"x_max":834,"o":"m 760 602 q 812 624 791 602 q 834 676 834 646 q 812 728 834 707 q 760 750 791 750 l 74 750 q 22 728 43 750 q 0 676 0 707 q 22 624 0 646 q 74 602 43 602 l 760 602 m 760 220 q 812 242 791 220 q 834 294 834 263 q 812 346 834 325 q 760 368 791 368 l 74 368 q 22 346 43 368 q 0 294 0 325 q 22 242 0 263 q 74 220 43 220 l 760 220 z "},">":{"ha":907,"x_min":0,"x_max":785,"o":"m 73 800 q 5 753 24 800 q 0 726 0 739 q 9 690 0 711 q 46 657 18 669 l 523 467 l 46 276 q 6 237 18 265 q 0 208 0 222 q 5 180 0 194 q 45 140 17 152 q 73 134 59 134 q 101 139 87 134 l 739 394 q 779 433 767 406 q 785 462 785 448 l 785 472 q 779 500 785 486 q 739 539 767 528 l 101 794 q 73 800 87 800 z "},"?":{"ha":789,"x_min":0,"x_max":667,"o":"m 334 5 q 416 39 382 5 q 450 121 450 73 q 416 204 450 170 q 334 238 382 238 q 251 204 285 238 q 217 121 217 170 q 251 39 217 73 q 334 5 285 5 m 334 370 q 386 391 364 370 q 407 443 407 412 l 407 507 q 569 597 502 530 q 667 832 667 695 l 667 861 q 569 1096 667 998 q 334 1194 471 1194 q 98 1096 196 1194 q 0 861 0 998 q 22 808 0 830 q 74 787 43 787 q 123 806 102 787 q 148 861 148 828 q 202 992 148 937 q 334 1046 257 1046 q 464 992 410 1046 q 519 861 519 937 l 519 832 q 464 702 519 756 q 334 647 410 647 q 281 625 303 647 q 260 572 260 604 l 260 443 q 281 391 260 412 q 334 370 303 370 z "},"@":{"ha":1410,"x_min":0,"x_max":1288,"o":"m 822 452 l 822 452 q 770 345 814 389 q 644 292 718 292 l 644 292 q 517 345 570 292 l 517 345 q 465 471 465 397 l 465 498 q 517 625 465 572 q 644 678 570 678 l 644 678 q 770 625 718 678 l 770 625 q 823 498 823 573 l 823 486 q 822 452 821 469 m 970 446 l 970 446 q 970 471 970 458 l 970 498 q 875 729 970 633 l 875 730 q 644 825 779 825 l 644 825 q 413 730 509 825 q 317 498 317 633 l 317 471 q 413 241 317 336 l 413 241 q 644 144 509 144 l 644 144 q 874 241 779 144 l 875 241 q 890 257 882 249 q 937 208 911 229 q 1034 162 981 172 q 1145 178 1090 151 q 1286 438 1250 224 q 1288 454 1288 446 l 1288 516 q 1099 971 1288 782 q 644 1160 909 1160 l 644 1160 q 189 971 378 1160 q 0 516 0 782 l 0 454 q 189 -1 0 189 q 644 -190 378 -190 l 644 -190 q 784 -174 715 -190 q 918 -128 854 -159 q 956 -87 945 -115 q 953 -31 966 -59 q 911 7 939 -3 q 854 5 884 18 q 752 -31 806 -18 q 644 -43 701 -43 l 644 -43 q 293 104 439 -43 q 147 454 147 250 l 147 516 q 293 867 147 721 q 644 1013 439 1013 l 644 1013 q 994 867 848 1013 q 1140 516 1140 721 l 1140 457 q 1078 309 1119 326 q 1060 307 1069 305 q 1029 323 1046 310 q 970 446 979 364 z "},"A":{"ha":1052,"x_min":0,"x_max":930,"o":"m 642 351 l 288 351 l 465 726 l 642 351 m 856 -1 q 888 7 871 -1 q 925 48 916 20 q 930 73 930 61 q 923 104 930 89 l 532 929 q 496 964 521 952 q 465 972 481 972 q 398 929 420 972 l 7 104 q 0 73 0 89 q 43 7 0 28 q 75 -1 58 -1 q 140 42 120 -1 l 218 204 l 713 204 l 789 42 q 831 4 804 14 q 856 -1 844 -1 z "},"B":{"ha":991,"x_min":0,"x_max":869,"o":"m 446 559 l 148 559 l 148 824 l 446 824 q 539 785 500 824 q 578 692 578 746 q 539 598 578 637 q 446 559 500 559 m 590 147 l 148 147 l 148 412 l 590 412 q 683 373 644 412 q 722 279 722 334 q 683 186 722 225 q 590 147 644 147 m 590 -1 q 787 81 705 -1 q 869 279 869 163 q 787 477 869 395 q 683 543 743 522 q 726 692 726 610 q 644 889 726 807 q 446 972 562 972 l 74 972 q 22 950 43 972 q 0 898 0 928 l 0 73 q 22 21 0 43 q 74 -1 43 -1 l 590 -1 z "},"C":{"ha":951,"x_min":0,"x_max":829,"o":"m 465 -1 q 654 40 564 -1 q 810 154 744 81 q 829 203 829 176 q 828 220 829 205 q 804 258 827 236 q 754 277 782 277 q 737 276 753 277 q 700 252 722 275 q 593 174 654 202 q 465 147 534 147 q 240 240 334 147 q 147 464 147 333 l 147 507 q 240 731 147 637 q 465 824 334 824 q 593 797 534 824 q 700 719 654 769 q 754 694 723 694 q 804 713 782 694 q 829 768 829 736 q 810 817 829 795 q 654 931 744 890 q 465 972 564 972 q 136 835 273 972 q 0 507 0 699 l 0 464 q 136 136 0 273 q 465 -1 273 -1 z "},"D":{"ha":1052,"x_min":0,"x_max":930,"o":"m 465 147 l 148 147 l 148 824 l 465 824 q 689 731 595 824 q 782 507 782 637 l 782 464 q 689 240 782 333 q 465 147 595 147 m 465 -1 q 793 136 656 -1 q 930 464 930 273 l 930 507 q 793 835 930 699 q 465 972 656 972 l 74 972 q 22 950 43 972 q 0 898 0 928 l 0 73 q 22 21 0 43 q 74 -1 43 -1 l 465 -1 z "},"E":{"ha":918,"x_min":0,"x_max":795,"o":"m 722 -1 q 774 21 752 -1 q 795 73 795 43 q 774 125 795 104 q 722 147 752 147 l 148 147 l 148 412 l 565 412 q 617 433 595 412 q 639 486 639 455 q 617 538 639 516 q 565 559 595 559 l 148 559 l 148 824 l 722 824 q 774 846 752 824 q 795 898 795 867 q 774 950 795 928 q 722 972 752 972 l 74 972 q 22 950 43 972 q 0 898 0 928 l 0 73 q 22 21 0 43 q 74 -1 43 -1 l 722 -1 z "},"F":{"ha":918,"x_min":0,"x_max":795,"o":"m 74 -1 q 126 21 104 -1 q 148 73 148 43 l 148 412 l 565 412 q 617 433 595 412 q 639 486 639 455 q 617 538 639 516 q 565 559 595 559 l 148 559 l 148 824 l 722 824 q 774 846 752 824 q 795 898 795 867 q 774 950 795 928 q 722 972 752 972 l 74 972 q 22 950 43 972 q 0 898 0 928 l 0 73 q 22 21 0 43 q 74 -1 43 -1 z "},"G":{"ha":1103,"x_min":0,"x_max":981,"o":"m 496 -1 q 839 142 696 -1 l 843 146 q 981 486 981 288 q 960 538 981 516 q 907 559 939 559 l 491 559 q 439 538 460 559 q 417 486 417 516 q 439 433 417 455 q 491 412 460 412 l 826 412 q 738 250 804 317 q 734 246 736 248 q 496 147 635 147 l 486 147 q 247 247 347 147 q 148 486 148 346 q 247 724 148 625 q 486 824 347 824 l 496 824 q 657 783 582 824 q 692 774 674 774 q 757 812 734 774 q 766 847 766 829 q 727 912 766 890 q 486 972 617 972 q 143 829 286 972 q 0 486 0 686 q 143 142 0 285 l 143 142 q 486 -1 286 -1 l 496 -1 z "},"H":{"ha":1052,"x_min":0,"x_max":930,"o":"m 856 -1 q 908 21 886 -1 q 930 73 930 43 l 930 898 q 908 950 930 928 q 856 972 886 972 q 804 950 825 972 q 782 898 782 928 l 782 559 l 148 559 l 148 898 q 126 950 148 928 q 74 972 104 972 q 22 950 43 972 q 0 898 0 928 l 0 73 q 22 21 0 43 q 74 -1 43 -1 q 126 21 104 -1 q 148 73 148 43 l 148 412 l 782 412 l 782 73 q 804 21 782 43 q 856 -1 825 -1 z "},"I":{"ha":269,"x_min":0,"x_max":147,"o":"m 74 -1 q 126 21 104 -1 q 147 73 147 43 l 147 898 q 126 950 147 928 q 74 972 104 972 q 21 950 43 972 q 0 898 0 928 l 0 73 q 21 21 0 43 q 74 -1 43 -1 z "},"J":{"ha":661,"x_min":0,"x_max":538,"o":"m 74 -1 q 402 136 266 -1 q 538 464 538 273 l 538 898 q 517 950 538 928 q 465 972 495 972 q 412 950 434 972 q 391 898 391 928 l 391 464 q 297 240 391 334 q 74 147 204 147 q 22 125 43 147 q 0 73 0 104 q 22 21 0 43 q 74 -1 43 -1 z "},"K":{"ha":765,"x_min":0,"x_max":643,"o":"m 74 -1 q 126 21 104 -1 q 148 73 148 43 l 148 328 l 522 17 q 570 0 545 0 q 589 1 573 0 q 626 26 606 3 q 643 73 643 48 q 642 93 643 77 q 616 130 640 109 l 189 486 l 616 841 q 643 898 643 865 q 626 945 643 923 q 570 971 603 971 q 522 954 545 971 l 148 642 l 148 898 q 126 950 148 928 q 74 972 104 972 q 22 950 43 972 q 0 898 0 928 l 0 73 q 22 21 0 43 q 74 -1 43 -1 z "},"L":{"ha":765,"x_min":0,"x_max":643,"o":"m 569 -1 q 621 21 600 -1 q 643 73 643 43 q 621 125 643 104 q 569 146 600 146 l 147 146 l 147 898 q 126 950 147 928 q 74 972 104 972 q 22 950 43 972 q 0 898 0 928 l 0 73 q 22 21 0 43 q 74 -1 43 -1 l 569 -1 z "},"M":{"ha":1052,"x_min":0,"x_max":930,"o":"m 857 -1 q 908 21 887 -1 q 930 73 930 43 l 930 898 q 908 950 930 928 q 857 972 887 972 q 793 935 816 972 l 465 435 l 138 935 q 74 972 115 972 q 22 950 43 972 q 0 898 0 928 l 0 73 q 22 21 0 43 q 74 -1 43 -1 q 126 21 104 -1 q 148 73 148 43 l 148 650 q 410 252 407 256 q 416 246 413 248 q 433 234 424 239 q 465 227 448 227 l 470 227 q 517 248 497 229 l 520 252 q 783 650 524 256 l 783 73 q 804 21 783 43 q 857 -1 825 -1 z "},"N":{"ha":1052,"x_min":0,"x_max":930,"o":"m 856 -1 q 908 21 886 -1 q 930 73 930 43 l 930 898 q 908 950 930 928 q 856 972 886 972 q 804 950 825 972 q 782 898 782 928 l 782 73 q 804 21 782 43 q 856 -1 825 -1 m 856 -1 q 907 21 884 -1 q 929 73 929 43 q 909 124 929 101 l 131 945 q 74 972 111 972 q 23 950 44 972 q 0 901 1 929 l 0 73 q 22 21 0 42 q 74 -1 43 -1 q 126 21 104 -1 q 147 73 147 42 l 147 713 l 802 22 q 856 -1 825 -1 z "},"O":{"ha":1099,"x_min":0,"x_max":977,"o":"m 491 147 q 247 247 347 147 q 147 486 147 346 q 247 724 147 625 q 491 824 347 824 q 730 724 630 824 q 829 486 829 625 q 730 247 829 346 q 491 147 630 147 m 491 -1 q 834 142 691 -1 q 977 486 977 285 q 834 829 977 686 q 486 972 691 972 q 143 829 286 972 q 0 486 0 686 q 143 142 0 285 q 491 -1 286 -1 z "},"P":{"ha":954,"x_min":0,"x_max":831,"o":"m 551 559 l 147 559 l 147 824 l 551 824 q 645 785 606 824 q 684 692 684 746 q 645 598 684 637 q 551 559 606 559 m 74 -1 q 126 21 104 -1 q 147 73 147 43 l 147 412 l 551 412 q 749 494 667 412 q 831 692 831 576 q 749 889 831 807 q 551 972 667 972 l 74 972 q 22 950 43 972 q 0 898 0 928 l 0 73 q 22 21 0 43 q 74 -1 43 -1 z "},"Q":{"ha":1099,"x_min":0,"x_max":977,"o":"m 562 155 l 562 287 q 541 339 562 317 q 488 361 519 361 q 436 339 458 361 q 414 287 414 317 l 414 155 q 247 246 317 177 q 148 486 148 346 q 247 724 148 625 q 486 824 347 824 q 730 724 631 824 q 829 486 829 625 q 730 246 829 346 q 562 155 661 177 m 488 -145 q 541 -123 519 -145 q 562 -71 562 -102 l 562 5 q 834 142 723 31 q 977 486 977 285 q 834 829 977 686 q 491 972 692 972 q 143 829 286 972 q 0 486 0 686 q 142 142 0 285 q 414 5 254 31 l 414 -71 q 436 -123 414 -102 q 488 -145 458 -145 z "},"R":{"ha":946,"x_min":0,"x_max":824,"o":"m 544 559 l 148 559 l 148 824 l 544 824 q 638 785 599 824 q 677 692 677 746 q 638 598 677 637 q 544 559 599 559 m 74 -1 q 126 21 104 -1 q 148 73 148 43 l 148 412 l 341 412 l 696 24 q 751 0 719 0 q 800 19 778 0 q 824 73 824 42 q 804 123 824 100 l 540 412 q 742 494 660 412 q 824 692 824 576 q 742 889 824 807 q 544 972 660 972 l 74 972 q 22 950 43 972 q 0 898 0 928 l 0 73 q 22 21 0 43 q 74 -1 43 -1 z "},"S":{"ha":963,"x_min":0,"x_max":841,"o":"m 437 -51 q 608 -25 526 -51 q 749 49 690 0 q 841 234 841 123 q 715 487 841 434 q 429 551 590 540 q 234 591 319 561 q 148 723 148 621 q 191 802 148 767 q 282 850 227 833 q 408 869 340 869 q 699 744 566 869 q 755 718 722 718 q 802 735 781 718 q 828 792 828 759 q 811 839 828 817 q 408 1017 623 1017 q 237 990 319 1017 q 95 914 154 964 q 0 723 0 838 q 125 470 0 523 q 412 405 251 417 q 607 366 522 396 q 693 234 693 336 q 654 161 693 193 q 564 115 618 132 q 437 96 505 96 q 130 227 271 96 q 75 253 106 253 q 26 235 49 253 q 1 178 1 213 q 18 132 1 153 q 437 -51 214 -51 z "},"T":{"ha":986,"x_min":0,"x_max":864,"o":"m 432 -1 q 484 21 463 -1 q 506 73 506 43 l 506 824 l 790 824 q 842 846 821 824 q 864 898 864 867 q 842 950 864 928 q 790 972 821 972 l 74 972 q 22 950 43 972 q 0 898 0 928 q 22 846 0 867 q 74 824 43 824 l 358 824 l 358 73 q 380 21 358 43 q 432 -1 401 -1 z "},"U":{"ha":1052,"x_min":0,"x_max":930,"o":"m 465 -1 q 793 136 657 -1 q 930 464 930 273 l 930 898 q 908 950 930 928 q 856 972 887 972 q 804 950 825 972 q 783 898 783 928 l 783 464 q 689 240 783 333 q 465 147 596 147 q 241 240 334 147 q 148 464 148 333 l 148 898 q 126 950 148 928 q 74 972 104 972 q 22 950 43 972 q 0 898 0 928 l 0 464 q 137 136 0 273 q 465 -1 273 -1 z "},"V":{"ha":1052,"x_min":0,"x_max":930,"o":"m 465 -1 q 496 7 481 -1 q 532 42 521 18 l 923 866 q 930 898 930 882 q 888 964 930 943 q 856 972 872 972 q 789 929 811 972 l 465 245 l 141 929 q 99 967 127 957 q 75 972 87 972 q 43 964 58 972 q 5 922 15 950 q 0 898 0 910 q 7 866 0 882 l 399 42 q 440 4 412 14 q 465 -1 452 -1 z "},"W":{"ha":1544,"x_min":0,"x_max":1421,"o":"m 956 -1 q 988 7 972 -1 q 1023 42 1012 18 l 1414 866 q 1421 898 1421 882 q 1379 964 1421 943 q 1347 972 1363 972 q 1281 929 1302 972 l 956 245 l 777 623 q 742 659 766 646 q 710 665 726 665 q 644 623 665 665 l 465 245 l 140 929 q 98 967 126 957 q 74 972 86 972 q 42 964 58 972 q 4 922 14 950 q 0 898 0 911 q 7 866 0 882 l 398 42 q 464 -1 419 -1 q 496 7 480 -1 q 531 42 520 18 l 711 420 l 890 42 q 956 -1 911 -1 z "},"X":{"ha":981,"x_min":0,"x_max":859,"o":"m 785 0 q 833 18 811 0 q 859 73 859 41 q 841 121 859 99 l 527 486 l 841 850 q 859 898 859 871 q 858 917 859 901 q 833 954 857 932 q 785 971 811 971 q 767 970 783 971 q 730 946 751 969 l 429 598 l 129 946 q 73 971 106 971 q 25 954 47 971 q 0 898 0 930 q 18 850 0 871 l 332 486 l 18 121 q 0 73 0 99 q 1 55 0 71 q 25 18 2 39 q 73 0 47 0 q 92 1 76 0 q 129 25 108 2 l 429 373 l 730 25 q 785 0 753 0 z "},"Y":{"ha":1052,"x_min":0,"x_max":930,"o":"m 465 -1 q 517 21 496 -1 q 538 73 538 43 l 538 456 l 909 847 q 930 897 930 869 q 929 914 930 899 q 907 950 929 929 q 856 971 884 971 q 840 971 854 971 q 803 949 825 970 l 480 608 q 465 610 473 610 q 450 608 457 610 l 127 949 q 74 971 104 971 q 23 951 45 971 q 0 897 0 928 q 20 847 0 869 l 391 456 l 391 73 q 413 21 391 43 q 465 -1 435 -1 z "},"Z":{"ha":772,"x_min":0,"x_max":650,"o":"m 576 -1 q 629 21 607 -1 q 650 73 650 43 q 629 125 650 104 q 576 147 607 147 l 205 147 l 637 855 q 650 898 650 873 q 629 950 650 928 q 576 972 607 972 l 73 972 q 21 950 43 972 q 0 898 0 928 q 21 846 0 867 q 73 824 43 824 l 445 824 l 11 111 q 0 73 0 92 q 4 46 0 64 q 35 10 9 27 q 73 -1 54 -1 l 576 -1 z "},"[":{"ha":449,"x_min":0,"x_max":327,"o":"m 253 -1 q 305 20 283 -1 q 327 73 327 42 q 305 125 327 103 q 253 146 283 146 l 148 146 l 148 823 l 253 823 q 305 845 283 823 q 327 897 327 867 q 305 949 327 928 q 253 971 283 971 l 74 971 q 22 949 43 971 q 0 897 0 928 l 0 73 q 22 20 0 42 q 74 -1 43 -1 l 253 -1 z "},"\\":{"ha":739,"x_min":0,"x_max":617,"o":"m 544 -1 q 581 9 562 -1 q 617 72 617 32 q 608 109 617 91 l 138 934 q 74 971 115 971 q 38 962 56 971 q 5 926 11 945 q 0 897 0 907 q 10 861 0 879 l 480 37 q 515 4 496 9 q 544 -1 534 -1 z "},"]":{"ha":449,"x_min":0,"x_max":327,"o":"m 253 -1 q 305 20 283 -1 q 327 73 327 42 l 327 897 q 305 949 327 928 q 253 971 283 971 l 74 971 q 22 949 43 971 q 0 897 0 928 q 22 845 0 867 q 74 823 43 823 l 179 823 l 179 146 l 74 146 q 22 125 43 146 q 0 73 0 103 q 22 20 0 42 q 74 -1 43 -1 l 253 -1 z "},"^":{"ha":838,"x_min":0,"x_max":715,"o":"m 641 411 q 617 414 635 411 q 581 444 600 418 l 358 768 l 134 444 q 75 411 111 411 q 32 425 52 411 q 0 486 0 448 q 13 527 0 507 l 297 939 q 358 971 320 971 q 399 958 380 971 q 419 938 412 949 l 703 527 q 715 486 715 507 q 712 461 715 479 q 684 425 709 443 q 641 411 663 411 z "},"_":{"ha":945,"x_min":0,"x_max":823,"o":"m 749 -1 q 801 20 779 -1 q 823 73 823 42 q 801 125 823 103 q 749 146 779 146 l 74 146 q 22 125 43 146 q 0 73 0 103 q 22 20 0 42 q 74 -1 43 -1 l 749 -1 z "},"a":{"ha":865,"x_min":0,"x_max":743,"o":"m 371 148 q 213 213 279 148 q 148 371 148 279 q 213 529 148 463 q 371 595 279 595 q 529 529 463 595 q 595 367 595 463 q 529 213 591 275 q 371 148 463 148 m 669 0 q 721 22 699 0 q 743 74 743 43 l 743 669 q 721 721 743 699 q 669 742 699 742 q 616 721 638 742 q 595 667 595 699 q 371 742 497 742 q 109 633 218 742 l 109 633 q 0 371 0 524 q 109 109 0 218 q 371 0 218 0 q 595 75 497 0 q 616 22 595 43 q 669 0 638 0 z "},"b":{"ha":865,"x_min":0,"x_max":743,"o":"m 372 0 q 634 109 525 0 q 743 371 743 218 q 634 633 743 524 q 372 742 525 742 q 148 667 246 742 l 148 989 q 126 1041 148 1019 q 74 1063 104 1063 q 22 1041 43 1063 q 1 989 1 1019 q 0 371 1 380 q 1 74 1 366 q 22 22 1 43 q 74 0 43 0 q 126 22 104 0 q 148 75 148 43 q 372 0 246 0 m 372 148 q 214 213 279 148 q 148 367 152 275 q 214 529 148 463 q 372 595 279 595 q 529 529 464 595 q 595 371 595 463 q 529 213 595 279 q 372 148 464 148 z "},"c":{"ha":757,"x_min":0,"x_max":635,"o":"m 372 0 q 497 22 437 0 q 609 86 559 45 q 635 143 635 110 q 618 190 635 168 q 561 216 595 216 q 514 199 536 216 q 372 148 453 148 q 214 213 279 148 q 148 371 148 279 q 213 529 148 463 q 372 595 279 595 q 514 543 452 595 q 563 526 536 526 q 582 527 566 526 q 618 552 597 528 q 635 599 635 574 q 633 618 635 602 q 609 656 632 635 q 372 742 506 742 q 110 633 219 742 l 109 633 l 109 633 q 0 371 0 524 q 109 109 0 218 q 372 0 218 0 z "},"d":{"ha":865,"x_min":0,"x_max":743,"o":"m 372 148 q 214 213 279 148 q 148 371 148 279 q 214 529 148 463 q 372 595 279 595 q 529 529 464 595 q 595 367 595 463 q 530 213 591 275 q 372 148 464 148 m 669 0 q 721 22 699 0 q 743 74 743 43 l 743 989 q 721 1041 743 1019 q 669 1063 699 1063 q 616 1041 638 1063 q 595 989 595 1019 l 595 667 q 372 742 497 742 q 110 633 219 742 l 109 633 q 0 371 0 524 q 109 109 0 218 q 372 0 218 0 q 595 75 497 0 q 616 22 595 43 q 669 0 638 0 z "},"e":{"ha":864,"x_min":0,"x_max":742,"o":"m 371 0 q 549 46 467 0 q 587 111 587 68 q 578 146 587 128 q 514 184 556 184 q 479 175 496 184 q 371 148 429 148 q 213 213 279 148 q 147 371 147 279 q 213 529 147 463 q 371 595 279 595 q 529 529 463 595 q 582 445 565 493 l 363 445 q 310 423 332 445 q 289 371 289 401 q 310 319 289 340 q 363 297 332 297 q 656 298 651 297 q 669 297 663 297 q 721 319 699 297 q 742 371 742 340 q 633 633 742 524 q 371 742 524 742 q 109 633 218 742 q 0 371 0 524 q 109 109 0 218 q 371 0 218 0 z "},"f":{"ha":567,"x_min":0,"x_max":445,"o":"m 74 -320 q 126 -299 104 -320 q 147 -247 147 -277 l 147 0 l 371 0 q 423 22 401 0 q 445 74 445 43 q 423 126 445 104 q 371 148 401 148 l 147 148 l 147 371 q 213 529 147 463 q 371 595 279 595 q 423 616 401 595 q 445 669 445 638 q 423 721 445 699 q 371 742 401 742 q 109 633 218 742 l 109 633 q 0 371 0 524 l 0 -247 q 21 -299 0 -277 q 74 -320 43 -320 z "},"g":{"ha":865,"x_min":0,"x_max":743,"o":"m 372 148 q 213 213 279 148 q 148 371 148 279 q 213 529 148 463 q 372 595 279 595 q 529 529 463 595 q 595 371 595 463 q 529 213 595 279 q 372 148 463 148 m 372 -320 q 634 -211 525 -320 q 743 51 743 -102 l 743 373 q 633 633 738 529 q 372 742 525 742 q 109 633 218 742 l 109 633 q 0 371 0 524 q 109 109 0 218 q 372 0 218 0 q 595 75 497 0 l 595 51 q 529 -107 595 -41 q 372 -173 463 -173 q 273 -150 319 -173 q 203 -96 231 -127 q 147 -71 180 -71 q 100 -90 121 -71 q 75 -145 75 -113 q 92 -193 75 -172 q 207 -281 142 -250 q 372 -320 284 -320 z "},"h":{"ha":736,"x_min":0,"x_max":614,"o":"m 541 0 q 593 22 571 0 q 614 74 614 43 l 614 469 q 519 665 614 585 q 307 742 431 742 q 147 702 220 742 l 147 989 q 126 1041 147 1019 q 74 1063 104 1063 q 21 1041 43 1063 q 0 989 0 1019 l 0 74 q 39 9 0 31 q 42 7 40 8 q 45 6 43 7 q 48 5 47 5 q 52 3 50 4 q 55 2 54 3 q 59 2 57 2 q 62 1 60 1 q 66 0 64 1 q 70 0 68 0 q 74 0 72 0 q 77 0 75 0 q 81 0 79 0 q 85 1 83 1 q 89 1 87 1 q 92 2 90 1 q 95 3 94 3 q 99 4 97 3 q 102 5 100 5 q 105 7 104 6 q 109 8 107 7 q 111 9 110 9 q 147 74 147 33 l 147 471 q 190 553 150 519 q 307 595 238 595 q 424 553 376 595 q 467 469 467 517 l 467 74 q 488 22 467 43 q 541 0 510 0 z "},"i":{"ha":270,"x_min":0,"x_max":148,"o":"m 74 882 q 126 903 104 882 q 148 956 148 925 l 148 989 q 126 1041 148 1019 q 74 1063 104 1063 q 22 1041 43 1063 q 0 989 0 1019 l 0 956 q 22 903 0 925 q 74 882 43 882 m 74 0 q 126 22 104 0 q 148 74 148 43 l 148 669 q 126 721 148 699 q 74 742 104 742 q 22 721 43 742 q 0 669 0 699 l 0 74 q 22 22 0 43 q 74 0 43 0 z "},"j":{"ha":790,"x_min":0,"x_max":668,"o":"m 594 882 q 647 903 625 882 q 668 956 668 925 l 668 989 q 647 1041 668 1019 q 594 1063 625 1063 q 542 1041 564 1063 q 521 989 521 1019 l 521 956 q 542 903 521 925 q 594 882 564 882 m 297 -320 q 559 -211 450 -320 q 668 51 668 -102 l 668 669 q 647 721 668 699 q 594 742 625 742 q 542 721 564 742 q 521 669 521 699 l 521 51 q 455 -107 521 -41 q 297 -173 389 -173 q 129 -96 199 -173 q 73 -71 106 -71 q 25 -90 47 -71 q 0 -145 0 -113 q 71 -243 0 -190 q 132 -281 100 -266 q 297 -320 210 -320 z "},"k":{"ha":673,"x_min":0,"x_max":551,"o":"m 477 0 q 527 18 504 0 q 551 75 551 42 q 533 123 551 100 l 313 371 l 533 620 q 551 667 551 642 q 550 686 551 670 q 527 724 549 702 q 477 742 504 742 q 460 741 475 742 q 422 717 444 740 l 147 406 l 147 669 q 126 721 147 699 q 74 742 104 742 q 21 721 43 742 q 0 669 0 699 l 0 74 q 21 22 0 43 q 74 0 43 0 q 126 22 104 0 q 147 74 147 43 l 147 185 l 214 260 l 422 25 q 477 0 446 0 z "},"l":{"ha":577,"x_min":0,"x_max":455,"o":"m 381 0 q 434 22 412 0 q 455 74 455 43 q 434 126 455 104 q 381 148 412 148 l 251 148 q 178 178 208 148 q 148 251 148 208 l 148 989 q 126 1041 148 1019 q 74 1063 104 1063 q 22 1041 43 1063 q 0 989 0 1019 l 0 251 q 74 74 0 147 q 251 0 148 0 l 381 0 z "},"m":{"ha":1203,"x_min":0,"x_max":1081,"o":"m 1007 0 q 1060 22 1038 0 q 1081 74 1081 43 l 1081 469 q 987 665 1081 585 q 774 742 897 742 q 541 646 633 742 q 307 742 448 742 q 141 699 216 742 q 73 742 119 742 q 21 721 43 742 q 0 669 0 699 l 0 74 q 21 22 0 43 q 73 0 43 0 q 126 22 104 0 q 147 74 147 43 l 147 469 q 190 553 147 517 q 307 595 238 595 q 424 553 376 595 q 467 469 467 517 l 467 74 q 488 22 467 43 q 541 0 510 0 q 593 22 571 0 q 614 74 614 43 l 614 469 q 657 553 614 517 q 774 595 705 595 q 891 553 843 595 q 934 469 934 517 l 934 74 q 955 22 934 43 q 1007 0 977 0 z "},"n":{"ha":736,"x_min":0,"x_max":614,"o":"m 541 0 q 593 22 571 0 q 614 74 614 43 l 614 469 q 519 665 614 585 q 307 742 430 742 q 141 699 216 742 q 73 742 119 742 q 21 721 43 742 q 0 669 0 699 l 0 74 q 21 22 0 43 q 73 0 43 0 q 125 22 104 0 q 147 74 147 43 l 147 469 q 190 553 147 517 q 307 595 237 595 q 424 553 376 595 q 467 469 467 517 l 467 74 q 488 22 467 43 q 541 0 510 0 z "},"o":{"ha":864,"x_min":0,"x_max":742,"o":"m 371 148 q 213 213 279 148 q 147 371 147 279 q 213 529 147 463 q 371 595 279 595 q 529 529 463 595 q 594 371 594 463 q 529 213 594 279 q 371 148 463 148 m 371 0 q 633 109 524 0 q 742 371 742 218 q 633 633 742 524 q 371 742 524 742 q 109 633 218 742 l 109 633 q 0 371 0 524 q 109 109 0 218 q 371 0 218 0 z "},"p":{"ha":865,"x_min":0,"x_max":743,"o":"m 74 -320 q 126 -299 104 -320 q 148 -247 148 -277 l 148 75 q 371 0 245 0 q 633 109 524 0 q 743 371 743 218 q 633 633 743 524 q 371 742 524 742 q 148 667 245 742 q 126 721 148 699 q 74 742 104 742 q 22 721 43 742 q 0 669 0 699 l 0 -247 q 22 -299 0 -277 q 74 -320 43 -320 m 371 148 q 214 213 279 148 q 148 367 151 275 q 213 529 148 463 q 371 595 279 595 q 529 529 463 595 q 595 371 595 463 q 529 213 595 279 q 371 148 463 148 z "},"q":{"ha":865,"x_min":0,"x_max":743,"o":"m 371 148 q 213 213 279 148 q 148 371 148 279 q 213 529 148 463 q 371 595 279 595 q 529 529 463 595 q 595 367 595 463 q 529 213 591 275 q 371 148 463 148 m 669 -320 q 721 -299 699 -320 q 742 -247 742 -277 q 743 371 742 361 q 742 669 742 376 q 721 721 742 699 q 669 742 699 742 q 616 721 638 742 q 595 667 595 699 q 371 742 496 742 q 109 633 218 742 l 109 633 q 0 371 0 524 q 109 109 0 218 q 371 0 218 0 q 595 75 496 0 l 595 -247 q 616 -299 595 -277 q 669 -320 638 -320 z "},"r":{"ha":503,"x_min":0,"x_max":381,"o":"m 74 0 q 126 22 104 0 q 148 74 148 43 l 148 469 q 191 553 148 517 q 307 595 238 595 q 359 616 338 595 q 381 669 381 638 q 359 721 381 699 q 307 742 338 742 q 141 699 216 742 q 74 742 119 742 q 22 721 43 742 q 0 669 0 699 l 0 74 q 22 22 0 43 q 74 0 43 0 z "},"s":{"ha":715,"x_min":0,"x_max":593,"o":"m 308 -5 q 523 88 452 -5 q 561 207 561 137 q 488 378 561 331 q 320 450 414 425 q 224 487 267 465 q 182 553 182 509 q 199 589 182 576 q 292 615 229 615 q 464 543 387 615 q 519 517 488 517 q 568 535 545 517 q 593 592 593 557 q 576 639 593 617 q 292 763 444 763 q 104 702 176 763 q 35 553 35 648 q 108 382 35 429 q 275 310 181 335 q 371 273 329 294 q 413 207 413 251 q 404 175 413 186 q 310 142 378 142 q 254 149 283 142 q 130 218 178 165 q 73 244 107 244 q 26 227 47 244 q 0 172 0 203 q 17 123 0 146 q 221 5 100 31 q 308 -5 265 -5 z "},"t":{"ha":678,"x_min":0,"x_max":556,"o":"m 482 0 q 534 22 513 0 q 556 74 556 43 q 534 126 556 104 q 482 148 513 148 l 352 148 q 279 178 309 148 q 248 251 248 208 l 248 595 l 381 595 q 433 616 412 595 q 455 669 455 637 q 433 721 455 699 q 381 742 412 742 l 248 742 l 248 989 q 227 1041 248 1019 q 175 1063 205 1063 q 122 1041 144 1063 q 101 989 101 1019 l 101 742 l 74 742 q 22 721 43 742 q 0 669 0 699 q 22 616 0 637 q 74 595 43 595 l 101 595 l 101 251 q 175 74 101 147 q 352 0 248 0 l 482 0 z "},"u":{"ha":736,"x_min":0,"x_max":614,"o":"m 541 0 q 593 22 572 0 q 614 74 614 43 l 614 669 q 593 721 614 699 q 541 742 572 742 q 489 721 510 742 q 467 669 467 699 l 467 274 q 425 189 467 225 q 307 148 376 148 q 191 189 238 148 q 148 274 148 225 l 148 669 q 126 721 148 699 q 74 742 104 742 q 22 721 43 742 q 0 669 0 699 l 0 274 q 94 77 0 157 q 307 0 184 0 q 473 43 399 0 q 541 0 496 0 z "},"v":{"ha":864,"x_min":0,"x_max":742,"o":"m 370 0 q 404 8 387 0 q 437 41 426 20 l 734 635 q 742 669 742 652 q 701 734 742 712 q 669 742 684 742 q 602 701 624 742 l 371 238 l 139 701 q 73 742 117 742 q 41 734 57 742 q 0 669 0 713 q 7 635 0 652 l 305 41 q 347 4 319 14 q 370 0 359 0 z "},"w":{"ha":1279,"x_min":0,"x_max":1157,"o":"m 786 0 q 819 8 802 0 q 852 41 841 20 l 1149 635 q 1157 669 1157 652 q 1116 734 1157 713 q 1084 742 1100 742 q 1017 701 1039 742 l 786 238 l 644 522 q 612 554 634 543 q 578 562 595 562 q 513 522 535 562 l 371 238 l 140 701 q 73 742 118 742 q 41 734 57 742 q 4 692 14 720 q 0 669 0 680 q 8 635 0 652 l 305 41 q 348 4 320 14 q 371 0 359 0 q 404 8 387 0 q 437 41 427 20 l 578 324 l 720 41 q 763 4 735 14 q 786 0 774 0 z "},"x":{"ha":742,"x_min":0,"x_max":620,"o":"m 546 0 q 591 16 570 0 q 620 74 620 39 q 604 119 620 98 l 404 371 l 604 623 q 620 668 620 644 q 618 689 620 672 q 591 726 616 706 q 545 743 570 743 q 525 741 541 743 q 488 714 508 739 l 310 490 l 132 714 q 75 743 109 743 q 28 726 50 743 q 0 668 0 703 q 16 623 0 644 l 216 371 l 16 119 q 0 74 0 98 q 2 53 0 70 q 28 16 4 36 q 74 0 50 0 q 95 2 78 0 q 132 28 112 4 l 310 252 l 488 28 q 546 0 511 0 z "},"y":{"ha":865,"x_min":0,"x_max":743,"o":"m 372 -320 q 634 -211 525 -320 q 743 51 743 -102 l 743 669 q 721 721 743 699 q 669 742 699 742 q 616 721 638 742 q 595 669 595 699 l 595 371 q 529 213 595 279 q 372 148 464 148 q 214 213 279 148 q 148 371 148 279 l 148 669 q 126 721 148 699 q 74 742 104 742 q 22 721 43 742 q 0 669 0 699 l 0 371 q 109 109 0 218 q 372 0 218 0 q 595 75 497 0 l 595 51 q 529 -107 595 -41 q 372 -173 464 -173 q 273 -150 319 -173 q 203 -96 231 -127 q 147 -71 180 -71 q 100 -90 121 -71 q 75 -145 75 -113 q 146 -243 75 -190 q 207 -281 175 -266 q 372 -320 284 -320 z "},"z":{"ha":661,"x_min":0,"x_max":538,"o":"m 465 0 q 517 22 495 0 q 538 74 538 43 q 517 126 538 104 q 465 148 495 148 l 210 148 l 522 623 q 538 669 538 642 q 517 721 538 699 q 465 742 495 742 l 74 742 q 21 721 43 742 q 0 669 0 699 q 21 616 0 638 q 74 595 43 595 l 328 595 l 12 114 q 0 73 0 94 q 4 48 0 66 q 33 12 7 30 q 74 0 52 0 l 465 0 z "},"{":{"ha":508,"x_min":0,"x_max":386,"o":"m 312 -1 q 358 16 337 -1 q 386 73 386 37 q 369 119 386 98 q 322 146 353 140 q 290 189 296 151 q 284 267 284 223 l 285 306 q 247 485 285 409 q 285 665 285 562 l 284 703 q 290 783 284 747 q 322 825 296 819 q 371 853 353 829 q 386 897 386 873 q 357 956 386 934 q 312 971 337 971 l 302 970 q 160 872 186 950 q 136 718 136 803 l 137 689 q 127 600 137 640 q 74 559 117 560 q 23 537 44 559 q 0 486 1 516 q 21 433 1 454 q 74 412 42 412 q 127 370 117 410 q 137 281 137 330 l 136 252 q 161 93 136 167 q 302 0 186 20 l 312 -1 z "},"|":{"ha":270,"x_min":0,"x_max":148,"o":"m 74 -1 q 126 20 104 -1 q 148 73 148 42 l 148 897 q 126 949 148 928 q 74 971 104 971 q 22 949 43 971 q 0 897 0 928 l 0 73 q 22 20 0 42 q 74 -1 43 -1 z "},"}":{"ha":507,"x_min":0,"x_max":385,"o":"m 74 -1 l 84 0 q 226 98 199 20 q 250 252 250 167 l 249 286 q 258 371 249 332 q 312 412 268 410 q 364 433 343 412 q 385 486 385 454 q 364 537 385 516 q 312 559 343 557 q 258 602 268 559 q 249 684 249 637 l 250 718 q 224 877 250 803 q 84 970 199 950 l 74 971 q 28 955 49 971 q 0 897 0 934 q 16 851 0 873 q 64 825 33 829 q 96 781 90 819 q 102 703 102 746 l 101 664 q 138 485 101 562 q 101 306 101 409 l 102 267 q 96 188 102 224 q 64 146 90 151 q 15 117 33 140 q 0 73 0 98 q 29 14 0 37 q 74 -1 49 -1 z "},"~":{"ha":1056,"x_min":0,"x_max":934,"o":"m 123 429 l 123 429 q 283 483 210 499 q 425 422 355 467 q 641 332 526 354 q 905 428 755 311 q 931 478 928 449 q 915 532 934 507 q 865 558 894 555 q 810 542 836 562 q 643 487 719 470 q 498 549 568 504 q 284 638 396 617 q 28 541 172 659 q 2 491 5 520 q 20 437 0 461 q 70 412 41 414 q 123 429 99 410 z "},"¡":{"ha":388,"x_min":0,"x_max":266,"o":"m 132 650 q 184 628 162 650 q 205 576 205 606 l 205 547 q 184 494 205 516 q 132 473 162 473 q 79 494 101 473 q 58 547 58 516 l 58 576 q 79 628 58 606 q 132 650 101 650 m 132 361 q 184 340 162 361 q 205 288 205 318 l 266 -251 q 196 -313 259 -298 q 133 -321 165 -321 q 0 -251 10 -321 l 58 285 q 79 340 58 318 q 132 361 101 361 z "},"–":{"ha":780,"x_min":0,"x_max":658,"o":"m 599 251 q 641 273 623 251 q 658 325 658 294 q 641 377 658 355 q 599 399 623 399 l 59 399 q 17 377 35 399 q 0 325 0 355 q 17 273 0 294 q 59 251 35 251 l 599 251 z "},"—":{"ha":1438,"x_min":0,"x_max":1316,"o":"m 1198 251 q 1282 273 1247 251 q 1316 325 1316 294 q 1282 377 1316 355 q 1198 399 1247 399 l 118 399 q 35 377 69 399 q 0 325 0 355 q 35 273 0 294 q 118 251 69 251 l 1198 251 z "},"‘":{"ha":355,"x_min":0,"x_max":233,"o":"m 158 857 q 180 852 170 857 q 208 807 208 838 q 203 785 208 796 l 155 690 l 178 675 q 233 576 233 637 q 199 494 233 528 q 117 460 165 460 q 34 494 68 460 q 0 576 0 528 q 1 594 0 585 q 8 621 1 604 l 113 829 q 158 857 128 857 z "},"’":{"ha":355,"x_min":0,"x_max":233,"o":"m 75 460 q 53 465 64 460 q 25 510 25 479 q 31 532 25 521 l 78 627 l 55 642 q 0 741 0 680 q 34 823 0 789 q 117 857 68 857 q 199 823 165 857 q 233 741 233 789 q 232 723 233 732 q 225 696 232 713 l 120 488 q 75 460 105 460 z "},"‚":{"ha":356,"x_min":0,"x_max":234,"o":"m 76 -159 q 53 -153 64 -159 q 25 -109 25 -138 q 31 -86 25 -98 l 78 8 l 55 22 q 0 121 0 61 q 34 204 0 170 q 117 238 68 238 q 200 204 165 238 q 234 121 234 170 q 233 104 234 113 l 232 101 q 227 80 231 90 q 120 -131 220 64 q 76 -159 105 -159 z "},"“":{"ha":690,"x_min":0,"x_max":568,"o":"m 159 857 q 181 852 170 857 q 209 807 209 838 q 203 785 209 796 l 156 690 l 179 675 q 234 576 234 637 q 200 494 234 528 q 117 460 165 460 q 34 494 68 460 q 0 576 0 528 q 1 594 0 585 l 2 597 q 9 621 2 604 q 16 635 12 629 l 114 829 q 159 857 129 857 m 494 857 q 516 852 505 857 q 544 808 544 838 q 538 785 544 796 l 490 690 l 513 675 q 568 576 568 637 q 534 494 568 528 q 452 460 500 460 q 369 494 404 460 q 335 576 335 528 q 336 594 335 585 q 341 616 336 606 q 351 635 346 627 l 448 829 q 494 857 463 857 z "},"”":{"ha":690,"x_min":0,"x_max":568,"o":"m 410 460 q 387 465 398 460 q 359 510 359 479 q 365 532 359 521 l 412 627 l 389 642 q 334 741 334 680 q 369 823 334 789 q 451 857 403 857 q 534 823 500 857 q 568 741 568 789 q 567 723 568 732 l 566 720 q 559 696 566 713 q 552 682 557 688 l 454 488 q 410 460 439 460 m 75 460 q 52 465 64 460 q 24 509 24 479 q 30 532 24 521 l 78 627 l 55 642 q 0 741 0 680 q 34 823 0 789 q 117 857 68 857 q 199 823 165 857 q 233 741 233 789 q 232 723 233 732 q 227 701 232 711 q 218 682 222 690 l 120 488 q 75 460 105 460 z "},"„":{"ha":686,"x_min":0,"x_max":564,"o":"m 76 -159 q 53 -153 64 -159 q 25 -109 25 -138 q 31 -86 25 -98 l 78 8 l 55 22 q 0 121 0 61 q 34 204 0 170 q 117 238 68 238 q 200 204 165 238 q 234 121 234 170 q 233 104 234 113 l 232 101 q 227 80 231 90 q 120 -131 220 64 q 76 -159 105 -159 m 406 -159 q 382 -153 394 -159 q 355 -109 355 -138 q 360 -86 355 -98 l 408 8 l 385 22 q 330 121 330 61 q 364 204 330 170 q 447 238 398 238 q 529 204 495 238 q 564 121 564 170 q 562 104 564 113 l 562 101 q 556 80 561 90 q 450 -131 549 64 q 406 -159 435 -159 z "},"⁄":{"ha":739,"x_min":0,"x_max":617,"o":"m 73 -1 q 103 4 83 -1 q 138 37 122 9 l 608 861 q 617 897 617 879 q 612 926 617 907 q 580 962 607 945 q 544 971 562 971 q 479 934 503 971 l 10 109 q 0 72 0 91 q 37 9 0 32 q 73 -1 56 -1 z "},"∕":{"ha":739,"x_min":0,"x_max":617,"o":"m 73 -1 q 103 4 83 -1 q 138 37 122 9 l 608 861 q 617 897 617 879 q 612 926 617 907 q 580 962 607 945 q 544 971 562 971 q 479 934 503 971 l 10 109 q 0 72 0 91 q 37 9 0 32 q 73 -1 56 -1 z "},"№":{"ha":122,"x_min":0,"x_max":0,"o":""},"−":{"ha":783,"x_min":0,"x_max":661,"o":"m 587 411 q 640 433 618 411 q 661 485 661 454 q 640 537 661 515 q 587 559 618 559 l 74 559 q 22 537 43 559 q 0 485 0 515 q 22 433 0 454 q 74 411 43 411 l 587 411 z "}}}
